<svg width="32" height="32" viewBox="0 0 32 32" fill="none" xmlns="http://www.w3.org/2000/svg">
<g clip-path="url(#clip0_5925_42976)">
<path d="M27.3117 9.214C26.0637 10.462 24.0315 10.462 22.7835 9.214C21.5357 7.966 21.5357 5.934 22.7835 4.686C24.0315 3.438 26.0637 3.438 27.3117 4.686C28.5597 5.934 28.5597 7.966 27.3117 9.214Z" fill="black" fill-opacity="0.3"/>
<path d="M22.7837 27.3136C21.5357 26.0656 21.5357 24.0335 22.7837 22.7855C24.0317 21.5376 26.0638 21.5376 27.3118 22.7855C28.5597 24.0335 28.5597 26.0656 27.3118 27.3136C26.0638 28.5616 24.0317 28.5616 22.7837 27.3136Z" fill="black" fill-opacity="0.5"/>
<path d="M16.0047 0C15.156 0 14.3421 0.337142 13.742 0.937258C13.1418 1.53737 12.8047 2.35131 12.8047 3.2C12.8047 4.04869 13.1418 4.86262 13.742 5.46274C14.3421 6.06286 15.156 6.4 16.0047 6.4C16.8533 6.4 17.6672 6.06286 18.2674 5.46274C18.8676 4.86262 19.2047 4.04869 19.2047 3.2C19.2047 2.35131 18.8676 1.53737 18.2674 0.937258C17.6672 0.337142 16.8533 0 16.0047 0Z" fill="black"/>
<path d="M31.9977 16.0003C31.9977 15.1516 31.6605 14.3377 31.0604 13.7376C30.4602 13.1374 29.6463 12.8003 28.7977 12.8003C27.949 12.8003 27.1351 13.1374 26.5349 13.7376C25.9348 14.3377 25.5977 15.1516 25.5977 16.0003C25.5977 16.8489 25.9348 17.6629 26.5349 18.263C27.1351 18.8632 27.949 19.2003 28.7977 19.2003C29.6463 19.2003 30.4602 18.8632 31.0604 18.263C31.6605 17.6629 31.9977 16.8489 31.9977 16.0003Z" fill="black" fill-opacity="0.4"/>
<path d="M9.214 4.686C10.462 5.934 10.462 7.966 9.214 9.214C7.966 10.462 5.934 10.462 4.686 9.214C3.438 7.966 3.438 5.934 4.686 4.686C5.934 3.438 7.966 3.438 9.214 4.686Z" fill="black" fill-opacity="0.9"/>
<path d="M0 16.0003C0 16.8489 0.337142 17.6629 0.937258 18.263C1.53737 18.8632 2.35131 19.2003 3.2 19.2003C4.04869 19.2003 4.86262 18.8632 5.46274 18.263C6.06286 17.6629 6.4 16.8489 6.4 16.0003C6.4 15.1516 6.06286 14.3377 5.46274 13.7376C4.86262 13.1374 4.04869 12.8003 3.2 12.8003C2.35131 12.8003 1.53737 13.1374 0.937258 13.7376C0.337142 14.3377 0 15.1516 0 16.0003Z" fill="black" fill-opacity="0.8"/>
<path d="M4.686 22.7856C5.934 21.5376 7.966 21.5376 9.214 22.7856C10.462 24.0336 10.462 26.0658 9.214 27.3138C7.966 28.5616 5.934 28.5616 4.686 27.3138C3.438 26.0658 3.438 24.0336 4.686 22.7856Z" fill="black" fill-opacity="0.7"/>
<path d="M16.0047 31.9996C16.8533 31.9996 17.6672 31.6625 18.2674 31.0623C18.8676 30.4622 19.2047 29.6482 19.2047 28.7996C19.2047 27.951 18.8676 27.137 18.2674 26.5369C17.6672 25.9367 16.8533 25.5996 16.0047 25.5996C15.156 25.5996 14.3421 25.9367 13.742 26.5369C13.1418 27.137 12.8047 27.951 12.8047 28.7996C12.8047 29.6482 13.1418 30.4622 13.742 31.0623C14.3421 31.6625 15.156 31.9996 16.0047 31.9996Z" fill="black" fill-opacity="0.6"/>
</g>
<defs>
<clipPath id="clip0_5925_42976">
<rect width="32" height="32" fill="white"/>
</clipPath>
</defs>
</svg>
